<svg width="20" height="144" viewBox="0 0 20 144" fill="none" xmlns="http://www.w3.org/2000/svg">
<path d="M15.0927 70.8354C15.0927 71.5302 14.4965 72.0934 13.761 72.0934C13.0255 72.0934 12.4293 71.5302 12.4293 70.8354C12.4293 70.1407 13.0255 69.5775 13.761 69.5775C14.4965 69.5775 15.0927 70.1407 15.0927 70.8354Z" fill="black"/>
<path fill-rule="evenodd" clip-rule="evenodd" d="M8.87807 79.6408C11.3297 79.6408 13.3171 77.7635 13.3171 75.4478C13.3171 73.132 11.3297 71.2547 8.87807 71.2547C6.42646 71.2547 4.43904 73.132 4.43904 75.4478C4.43904 77.7635 6.42646 79.6408 8.87807 79.6408ZM8.87807 77.9636C10.349 77.9636 11.5415 76.8372 11.5415 75.4478C11.5415 74.0583 10.349 72.932 8.87807 72.932C7.40711 72.932 6.21465 74.0583 6.21465 75.4478C6.21465 76.8372 7.40711 77.9636 8.87807 77.9636Z" fill="black"/>
<path fill-rule="evenodd" clip-rule="evenodd" d="M0 75.1123C0 72.2944 0 70.8854 0.580591 69.809C1.09129 68.8623 1.9062 68.0925 2.90851 67.6101C4.04798 67.0617 5.53964 67.0617 8.52295 67.0617H9.2332C12.2165 67.0617 13.7082 67.0617 14.8476 67.6101C15.85 68.0925 16.6649 68.8623 17.1756 69.809C17.7561 70.8854 17.7561 72.2944 17.7561 75.1123V75.7832C17.7561 78.6012 17.7561 80.0102 17.1756 81.0865C16.6649 82.0333 15.85 82.803 14.8476 83.2854C13.7082 83.8339 12.2165 83.8339 9.2332 83.8339H8.52295C5.53964 83.8339 4.04798 83.8339 2.90851 83.2854C1.9062 82.803 1.09129 82.0333 0.580591 81.0865C0 80.0102 0 78.6012 0 75.7832V75.1123ZM8.52295 68.7389H9.2332C10.7542 68.7389 11.7881 68.7402 12.5873 68.8019C13.3657 68.862 13.7638 68.9709 14.0415 69.1045C14.7097 69.4261 15.253 69.9393 15.5935 70.5705C15.735 70.8328 15.8503 71.2088 15.9139 71.9441C15.9792 72.699 15.9805 73.6757 15.9805 75.1123V75.7832C15.9805 77.2199 15.9792 78.1965 15.9139 78.9514C15.8503 79.6867 15.735 80.0628 15.5935 80.3251C15.253 80.9563 14.7097 81.4694 14.0415 81.791C13.7638 81.9247 13.3657 82.0336 12.5873 82.0937C11.7881 82.1553 10.7542 82.1566 9.2332 82.1566H8.52295C7.002 82.1566 5.96807 82.1553 5.16888 82.0937C4.39043 82.0336 3.99233 81.9247 3.71462 81.791C3.04641 81.4694 2.50314 80.9563 2.16268 80.3251C2.02118 80.0628 1.90589 79.6867 1.84229 78.9514C1.777 78.1965 1.77561 77.2199 1.77561 75.7832V75.1123C1.77561 73.6757 1.777 72.699 1.84229 71.9441C1.90589 71.2088 2.02118 70.8328 2.16268 70.5705C2.50314 69.9393 3.04641 69.4261 3.71462 69.1045C3.99233 68.9709 4.39043 68.862 5.16888 68.8019C5.96807 68.7402 7.002 68.7389 8.52295 68.7389Z" fill="black"/>
<path d="M6.27004 143.558C3.96213 143.558 1.81078 142.914 0 141.805C1.53741 141.9 4.25059 141.672 5.93818 140.129C3.39949 140.017 2.25458 138.152 2.10525 137.354C2.32095 137.434 3.34971 137.53 3.93045 137.306C1.01013 136.605 0.562121 134.149 0.661677 133.399C1.20924 133.766 2.13843 133.894 2.50348 133.862C-0.21774 131.996 0.761234 129.189 1.24242 128.583C3.19527 131.176 6.12197 132.632 9.74269 132.713C9.67442 132.426 9.63837 132.127 9.63837 131.821C9.63837 129.619 11.4956 127.834 13.7866 127.834C14.9836 127.834 16.0622 128.321 16.8193 129.101C17.6192 128.921 18.823 128.5 19.4115 128.137C19.1149 129.157 18.1914 130.009 17.6327 130.324C17.6282 130.314 17.6374 130.335 17.6327 130.324C18.1234 130.253 19.4512 130.009 19.9757 129.668C19.7163 130.241 18.7372 131.194 17.9337 131.728C18.0832 138.046 13.0387 143.558 6.27004 143.558Z" fill="#0B0B0B"/>
<path d="M14.3128 10.8936L14.8879 7.3887H11.2901V5.11525C11.2901 4.15616 11.7918 3.22072 13.4032 3.22072H15.04V0.236817C15.04 0.236817 13.5552 0 12.1364 0C9.17198 0 7.23621 1.67902 7.23621 4.7174V7.3887H3.94238V10.8936H7.23621V23.0617H11.2901V10.8936H14.3128Z" fill="#0B0B0B"/>
</svg>
